<svg xmlns="http://www.w3.org/2000/svg" viewBox="0 0 275.4 58.07"><defs><style>.cls-1,.cls-3{fill:#dd3a6c;}.cls-2{fill:#666;}.cls-3{font-size:20.58px;font-family:TrebuchetMS-Bold, Trebuchet MS;font-weight:700;}.cls-4{fill:#333;}</style></defs><g id="Layer_2" data-name="Layer 2"><g id="Layer_1-2" data-name="Layer 1"><rect class="cls-1" x="16.74" y="2.94" width="9.26" height="50.16" rx="4.63"/><rect class="cls-1" x="50.22" width="9.26" height="56.03" rx="4.63"/><rect class="cls-1" x="31.73" y="21.63" width="12.77" height="12.77" rx="6.38"/><rect class="cls-2" x="66.96" y="15.61" width="9.26" height="24.81" rx="4.63"/><rect class="cls-2" x="83.7" y="6.79" width="9.26" height="42.44" rx="4.63"/><rect class="cls-2" y="13.82" width="9.26" height="28.4" rx="4.63"/><text class="cls-3" transform="translate(218.34 52.52)">global</text><path class="cls-4" d="M129.86,32.25a1.58,1.58,0,0,1-1.57-1.58v-7.9H115.63v7.9a1.6,1.6,0,0,1-3.19,0v-19a1.6,1.6,0,0,1,3.19,0v7.9h12.66v-7.9a1.58,1.58,0,0,1,3.15,0v19A1.58,1.58,0,0,1,129.86,32.25Z"/><path class="cls-4" d="M129.86,32.55A1.88,1.88,0,0,1,128,30.67v-7.6H115.93v7.6A1.9,1.9,0,0,1,114,32.55a1.88,1.88,0,0,1-1.88-1.88v-19A1.88,1.88,0,0,1,114,9.82a1.9,1.9,0,0,1,1.91,1.87v7.6H128v-7.6a1.88,1.88,0,0,1,3.75,0v19A1.88,1.88,0,0,1,129.86,32.55Z"/><path class="cls-4" d="M161.7,32.25a1.42,1.42,0,0,1-1.41-1l-1.86-4.45H145.35l-1.89,4.51a1.5,1.5,0,0,1-1.42.94,1.54,1.54,0,0,1-1.54-1.54,1.38,1.38,0,0,1,.14-.64l7.21-17.28a4.57,4.57,0,0,1,1.62-2h0a4.51,4.51,0,0,1,2.61-.69h0a4.42,4.42,0,0,1,2.26.71h0a4.79,4.79,0,0,1,1.57,1.95l7.32,17.53v.36A1.56,1.56,0,0,1,161.7,32.25Zm-20.29-1.8v0Zm5.22-6.73h10.51L153.05,14a1,1,0,0,0-.39-.52l-.12-.09a1.38,1.38,0,0,0-.67-.16,1.76,1.76,0,0,0-.5.1l-.2.1a1.43,1.43,0,0,0-.48.57Z"/><path class="cls-4" d="M161.7,32.55a1.73,1.73,0,0,1-1.7-1.22l-1.77-4.23H145.55l-1.81,4.33a1.81,1.81,0,0,1-1.7,1.12,1.85,1.85,0,0,1-1.84-1.84,1.6,1.6,0,0,1,.17-.76l7.21-17.27a4.74,4.74,0,0,1,6.95-2.09,5.06,5.06,0,0,1,1.66,2.07l7.35,17.59v.42A1.86,1.86,0,0,1,161.7,32.55Zm-20-2-.55-.24.11,0-.11-.05.32.14,0,0,.28.12Zm-.13-.06.13.06Zm5.53-7.11h9.61l-3.91-9.33a.81.81,0,0,0-.28-.39l-.13-.09a1.09,1.09,0,0,0-.5-.11,1.21,1.21,0,0,0-.39.08l-.18.09a1.12,1.12,0,0,0-.33.42Z"/><path class="cls-4" d="M189.62,32.25a2.7,2.7,0,0,1-2.19-1.11L174,13.86V30.64a1.54,1.54,0,1,1-3.08,0V12.87a2.75,2.75,0,0,1,2.75-2.75,2.69,2.69,0,0,1,2.19,1.1l13.4,17.28V11.73a1.54,1.54,0,1,1,3.08,0V29.5A2.75,2.75,0,0,1,189.62,32.25Z"/><path class="cls-4" d="M189.62,32.55a3,3,0,0,1-2.44-1.24L174.33,14.74v15.9a1.84,1.84,0,0,1-3.68,0V12.87a3,3,0,0,1,3-3,3,3,0,0,1,2.44,1.23L189,27.62V11.73a1.84,1.84,0,1,1,3.68,0V29.5A3.06,3.06,0,0,1,189.62,32.55Z"/><path class="cls-4" d="M210.1,32.25a1.61,1.61,0,0,1-1.62-1.58V13.3h-6.61a1.6,1.6,0,0,1-1.58-1.61,1.57,1.57,0,0,1,1.58-1.57h16.42a1.57,1.57,0,0,1,1.57,1.57,1.59,1.59,0,0,1-1.57,1.61h-6.62V30.67A1.57,1.57,0,0,1,210.1,32.25Z"/><path class="cls-4" d="M210.1,32.55a1.9,1.9,0,0,1-1.92-1.88V13.6h-6.31a1.89,1.89,0,0,1,0-3.78h16.42a1.89,1.89,0,0,1,0,3.78H212V30.67A1.88,1.88,0,0,1,210.1,32.55Z"/><path class="cls-4" d="M241.72,32.25h-7a9.61,9.61,0,0,1-9.48-9.48V19.6a9.61,9.61,0,0,1,9.48-9.48h7a1.59,1.59,0,1,1,0,3.18h-7a6.3,6.3,0,0,0-6.29,6.29h12.06a1.57,1.57,0,0,1,1.58,1.57,1.61,1.61,0,0,1-1.58,1.62H228.41a6.3,6.3,0,0,0,6.29,6.28h7a1.6,1.6,0,1,1,0,3.19Z"/><path class="cls-4" d="M241.72,32.55h-7a9.91,9.91,0,0,1-9.78-9.78V19.6a9.91,9.91,0,0,1,9.78-9.78h7a1.89,1.89,0,1,1,0,3.78h-7a6,6,0,0,0-6,5.69h11.75a1.88,1.88,0,0,1,1.88,1.87,1.9,1.9,0,0,1-1.88,1.92H228.72a6,6,0,0,0,6,5.68h7a1.9,1.9,0,1,1,0,3.79Z"/><path class="cls-4" d="M265,32.25h-3.91a9.49,9.49,0,0,1-9.48-9.48V19.6a9.61,9.61,0,0,1,9.48-9.48H265a9.61,9.61,0,0,1,9.48,9.48v3.17A9.61,9.61,0,0,1,265,32.25ZM261.13,13.3a6.31,6.31,0,0,0-6.3,6.3v3.17a6.3,6.3,0,0,0,6.3,6.29H265a6.38,6.38,0,0,0,6.3-6.29V19.6a6.39,6.39,0,0,0-6.3-6.3Z"/><path class="cls-4" d="M265,32.55h-3.91a9.8,9.8,0,0,1-9.79-9.78V19.6a9.91,9.91,0,0,1,9.79-9.78H265a9.91,9.91,0,0,1,9.78,9.78v3.17A9.91,9.91,0,0,1,265,32.55ZM261.13,13.6a6,6,0,0,0-6,6v3.17a6,6,0,0,0,6,6H265a6.07,6.07,0,0,0,6-6V19.6a6.08,6.08,0,0,0-6-6Z"/></g></g></svg>